<mxfile host="app.diagrams.net" agent="Mozilla/5.0 (Windows NT 10.0; Win64; x64) AppleWebKit/537.36 (KHTML, like Gecko) Chrome/132.0.0.0 Safari/537.36" version="26.0.12">
  <diagram name="PÃ¡gina-1" id="sV_ksN9QUsedbrIhO2Im">
    <mxGraphModel dx="880" dy="444" grid="1" gridSize="10" guides="1" tooltips="1" connect="1" arrows="1" fold="1" page="1" pageScale="1" pageWidth="827" pageHeight="1169" math="0" shadow="0">
      <root>
        <mxCell id="0" />
        <mxCell id="1" parent="0" />
        <mxCell id="w7916_sMzhQQ8YSVH5iy-31" value="User" style="swimlane;childLayout=stackLayout;horizontal=1;startSize=50;horizontalStack=0;rounded=1;fontSize=14;fontStyle=0;strokeWidth=2;resizeParent=0;resizeLast=1;shadow=0;dashed=0;align=center;arcSize=4;whiteSpace=wrap;html=1;" vertex="1" parent="1">
          <mxGeometry x="70" y="50" width="200" height="140" as="geometry" />
        </mxCell>
        <mxCell id="w7916_sMzhQQ8YSVH5iy-32" value="user_id&amp;nbsp; &amp;nbsp; &amp;nbsp; &amp;nbsp; &amp;nbsp; &amp;nbsp; &amp;nbsp; &amp;nbsp; &amp;nbsp;ObjectId&lt;div&gt;name&amp;nbsp; &amp;nbsp; &amp;nbsp; &amp;nbsp; &amp;nbsp; &amp;nbsp; &amp;nbsp; &amp;nbsp; &amp;nbsp; &amp;nbsp; String&lt;br&gt;email&amp;nbsp; &amp;nbsp; &amp;nbsp; &amp;nbsp; &amp;nbsp; &amp;nbsp; &amp;nbsp; &amp;nbsp; &amp;nbsp; &amp;nbsp; String(unique)&lt;/div&gt;&lt;div&gt;password&amp;nbsp; &amp;nbsp; &amp;nbsp; &amp;nbsp; &amp;nbsp; &amp;nbsp; &amp;nbsp; String&lt;/div&gt;&lt;div&gt;role&amp;nbsp; &amp;nbsp; &amp;nbsp; &amp;nbsp; &amp;nbsp; &amp;nbsp; &amp;nbsp; &amp;nbsp; &amp;nbsp; &amp;nbsp; &amp;nbsp; &amp;nbsp;String(adm/client)&lt;/div&gt;" style="align=left;strokeColor=none;fillColor=none;spacingLeft=4;fontSize=12;verticalAlign=top;resizable=0;rotatable=0;part=1;html=1;" vertex="1" parent="w7916_sMzhQQ8YSVH5iy-31">
          <mxGeometry y="50" width="200" height="90" as="geometry" />
        </mxCell>
        <mxCell id="w7916_sMzhQQ8YSVH5iy-39" value="File" style="swimlane;childLayout=stackLayout;horizontal=1;startSize=50;horizontalStack=0;rounded=1;fontSize=14;fontStyle=0;strokeWidth=2;resizeParent=0;resizeLast=1;shadow=0;dashed=0;align=center;arcSize=4;whiteSpace=wrap;html=1;" vertex="1" parent="1">
          <mxGeometry x="450" y="50" width="310" height="180" as="geometry" />
        </mxCell>
        <mxCell id="w7916_sMzhQQ8YSVH5iy-40" value="file_id&amp;nbsp; &amp;nbsp; &amp;nbsp; &amp;nbsp; &amp;nbsp; &amp;nbsp; &amp;nbsp; &amp;nbsp; &amp;nbsp; &amp;nbsp; &amp;nbsp; ObjectId&lt;div&gt;filename&amp;nbsp; &amp;nbsp; &amp;nbsp; &amp;nbsp; &amp;nbsp; &amp;nbsp; &amp;nbsp; &amp;nbsp; &amp;nbsp; String&lt;br&gt;originalname&amp;nbsp; &amp;nbsp; &amp;nbsp; &amp;nbsp; &amp;nbsp; &amp;nbsp;String(unique)&lt;/div&gt;&lt;div&gt;filetype&amp;nbsp; &amp;nbsp; &amp;nbsp; &amp;nbsp; &amp;nbsp; &amp;nbsp; &amp;nbsp; &amp;nbsp; &amp;nbsp; &amp;nbsp; String(xls, pdf, docx)&lt;/div&gt;&lt;div&gt;filepath&amp;nbsp; &amp;nbsp; &amp;nbsp; &amp;nbsp; &amp;nbsp; &amp;nbsp; &amp;nbsp; &amp;nbsp; &amp;nbsp; &amp;nbsp; String&lt;/div&gt;&lt;div&gt;status&amp;nbsp; &amp;nbsp; &amp;nbsp; &amp;nbsp; &amp;nbsp; &amp;nbsp; &amp;nbsp; &amp;nbsp; &amp;nbsp; &amp;nbsp; &amp;nbsp; String(pending, processed, failed)&lt;/div&gt;&lt;div&gt;user_id&amp;nbsp; &amp;nbsp; &amp;nbsp; &amp;nbsp; &amp;nbsp; &amp;nbsp; &amp;nbsp; &amp;nbsp; &amp;nbsp; &amp;nbsp; ObjectId(FK -&amp;gt; user)&lt;/div&gt;&lt;div&gt;uploadBy&amp;nbsp; &amp;nbsp; &amp;nbsp; &amp;nbsp; &amp;nbsp; &amp;nbsp; &amp;nbsp; &amp;nbsp; &amp;nbsp;ObjectId (FK -&amp;gt; user)&lt;/div&gt;" style="align=left;strokeColor=none;fillColor=none;spacingLeft=4;fontSize=12;verticalAlign=top;resizable=0;rotatable=0;part=1;html=1;" vertex="1" parent="w7916_sMzhQQ8YSVH5iy-39">
          <mxGeometry y="50" width="310" height="130" as="geometry" />
        </mxCell>
        <mxCell id="w7916_sMzhQQ8YSVH5iy-48" value="&lt;ul&gt;&lt;li&gt;register()&lt;/li&gt;&lt;li&gt;login()&lt;/li&gt;&lt;li&gt;uploadFile()&lt;/li&gt;&lt;li&gt;downloadFile()&lt;/li&gt;&lt;/ul&gt;" style="text;strokeColor=none;fillColor=none;html=1;whiteSpace=wrap;verticalAlign=middle;overflow=hidden;" vertex="1" parent="1">
          <mxGeometry x="50" y="180" width="140" height="80" as="geometry" />
        </mxCell>
        <mxCell id="w7916_sMzhQQ8YSVH5iy-49" value="&lt;ul&gt;&lt;li&gt;processFile()&lt;/li&gt;&lt;li&gt;UpdateStatus()&lt;/li&gt;&lt;li&gt;notifyUser()&lt;/li&gt;&lt;/ul&gt;" style="text;strokeColor=none;fillColor=none;html=1;whiteSpace=wrap;verticalAlign=middle;overflow=hidden;" vertex="1" parent="1">
          <mxGeometry x="430" y="220" width="150" height="80" as="geometry" />
        </mxCell>
        <mxCell id="w7916_sMzhQQ8YSVH5iy-50" value="Log" style="swimlane;childLayout=stackLayout;horizontal=1;startSize=50;horizontalStack=0;rounded=1;fontSize=14;fontStyle=0;strokeWidth=2;resizeParent=0;resizeLast=1;shadow=0;dashed=0;align=center;arcSize=4;whiteSpace=wrap;html=1;" vertex="1" parent="1">
          <mxGeometry x="220" y="320" width="250" height="140" as="geometry" />
        </mxCell>
        <mxCell id="w7916_sMzhQQ8YSVH5iy-51" value="log_id&amp;nbsp; &amp;nbsp; &amp;nbsp; &amp;nbsp; &amp;nbsp; &amp;nbsp; &amp;nbsp; &amp;nbsp; &amp;nbsp; &amp;nbsp;ObjectId&lt;div&gt;user&amp;nbsp; &amp;nbsp; &amp;nbsp; &amp;nbsp; &amp;nbsp; &amp;nbsp; &amp;nbsp; &amp;nbsp; &amp;nbsp; &amp;nbsp; &amp;nbsp;&amp;nbsp;&lt;span style=&quot;background-color: transparent; color: light-dark(rgb(0, 0, 0), rgb(255, 255, 255));&quot;&gt;ObjectId&lt;/span&gt;&lt;span style=&quot;background-color: transparent; color: light-dark(rgb(0, 0, 0), rgb(255, 255, 255));&quot;&gt;(FK -&amp;gt; user)&lt;/span&gt;&lt;/div&gt;&lt;div&gt;&lt;span style=&quot;background-color: transparent; color: light-dark(rgb(0, 0, 0), rgb(255, 255, 255));&quot;&gt;action&amp;nbsp; &amp;nbsp; &amp;nbsp; &amp;nbsp; &amp;nbsp; &amp;nbsp; &amp;nbsp; &amp;nbsp; &amp;nbsp; &amp;nbsp;String (upload/download)&lt;/span&gt;&lt;/div&gt;&lt;div&gt;details&amp;nbsp; &amp;nbsp; &amp;nbsp; &amp;nbsp; &amp;nbsp; &amp;nbsp; &amp;nbsp; &amp;nbsp; &amp;nbsp; String&lt;/div&gt;&lt;div&gt;createdAt&amp;nbsp; &amp;nbsp; &amp;nbsp; &amp;nbsp; &amp;nbsp; &amp;nbsp; &amp;nbsp; Date&lt;/div&gt;" style="align=left;strokeColor=none;fillColor=none;spacingLeft=4;fontSize=12;verticalAlign=top;resizable=0;rotatable=0;part=1;html=1;" vertex="1" parent="w7916_sMzhQQ8YSVH5iy-50">
          <mxGeometry y="50" width="250" height="90" as="geometry" />
        </mxCell>
        <mxCell id="w7916_sMzhQQ8YSVH5iy-52" value="&lt;ul&gt;&lt;li&gt;createLog()&lt;/li&gt;&lt;li&gt;getLogs()&lt;/li&gt;&lt;/ul&gt;" style="text;strokeColor=none;fillColor=none;html=1;whiteSpace=wrap;verticalAlign=middle;overflow=hidden;" vertex="1" parent="1">
          <mxGeometry x="200" y="450" width="120" height="80" as="geometry" />
        </mxCell>
        <mxCell id="w7916_sMzhQQ8YSVH5iy-54" style="edgeStyle=orthogonalEdgeStyle;rounded=0;orthogonalLoop=1;jettySize=auto;html=1;exitX=1;exitY=0.25;exitDx=0;exitDy=0;" edge="1" parent="1" source="w7916_sMzhQQ8YSVH5iy-32" target="w7916_sMzhQQ8YSVH5iy-40">
          <mxGeometry relative="1" as="geometry" />
        </mxCell>
        <mxCell id="w7916_sMzhQQ8YSVH5iy-55" value="1 : N" style="edgeLabel;html=1;align=center;verticalAlign=middle;resizable=0;points=[];" vertex="1" connectable="0" parent="w7916_sMzhQQ8YSVH5iy-54">
          <mxGeometry x="-0.4607" y="1" relative="1" as="geometry">
            <mxPoint y="1" as="offset" />
          </mxGeometry>
        </mxCell>
        <mxCell id="w7916_sMzhQQ8YSVH5iy-56" style="edgeStyle=orthogonalEdgeStyle;rounded=0;orthogonalLoop=1;jettySize=auto;html=1;exitX=0.5;exitY=1;exitDx=0;exitDy=0;entryX=1;entryY=0.25;entryDx=0;entryDy=0;" edge="1" parent="1" source="w7916_sMzhQQ8YSVH5iy-40" target="w7916_sMzhQQ8YSVH5iy-51">
          <mxGeometry relative="1" as="geometry" />
        </mxCell>
        <mxCell id="w7916_sMzhQQ8YSVH5iy-57" value="1 : N" style="edgeLabel;html=1;align=center;verticalAlign=middle;resizable=0;points=[];" vertex="1" connectable="0" parent="w7916_sMzhQQ8YSVH5iy-56">
          <mxGeometry x="0.2504" y="-3" relative="1" as="geometry">
            <mxPoint x="52" y="-89" as="offset" />
          </mxGeometry>
        </mxCell>
        <mxCell id="w7916_sMzhQQ8YSVH5iy-58" style="edgeStyle=orthogonalEdgeStyle;rounded=0;orthogonalLoop=1;jettySize=auto;html=1;exitX=0.75;exitY=1;exitDx=0;exitDy=0;" edge="1" parent="1" source="w7916_sMzhQQ8YSVH5iy-32" target="w7916_sMzhQQ8YSVH5iy-50">
          <mxGeometry relative="1" as="geometry" />
        </mxCell>
        <mxCell id="w7916_sMzhQQ8YSVH5iy-59" value="1 : N" style="edgeLabel;html=1;align=center;verticalAlign=middle;resizable=0;points=[];" vertex="1" connectable="0" parent="w7916_sMzhQQ8YSVH5iy-58">
          <mxGeometry x="-0.2549" y="1" relative="1" as="geometry">
            <mxPoint as="offset" />
          </mxGeometry>
        </mxCell>
      </root>
    </mxGraphModel>
  </diagram>
</mxfile>
